<?xml version="1.0" encoding="UTF-8" standalone="no"?>
<!-- Generator: Adobe Illustrator 15.1.0, SVG Export Plug-In  -->

<svg
   xmlns:dc="http://purl.org/dc/elements/1.1/"
   xmlns:cc="http://creativecommons.org/ns#"
   xmlns:rdf="http://www.w3.org/1999/02/22-rdf-syntax-ns#"
   xmlns:svg="http://www.w3.org/2000/svg"
   xmlns="http://www.w3.org/2000/svg"
   xmlns:sodipodi="http://sodipodi.sourceforge.net/DTD/sodipodi-0.dtd"
   xmlns:inkscape="http://www.inkscape.org/namespaces/inkscape"
   version="1.1"
   x="0px"
   y="0px"
   width="16px"
   height="16px"
   viewBox="0 0 16 16"
   style="overflow:visible;enable-background:new 0 0 16 16;"
   xml:space="preserve"
   preserveAspectRatio="xMinYMid meet"
   id="svg2"
   inkscape:version="0.47 r22583"
   sodipodi:docname="assignroles.svg"><metadata
   id="metadata10"><rdf:RDF><cc:Work
       rdf:about=""><dc:format>image/svg+xml</dc:format><dc:type
         rdf:resource="http://purl.org/dc/dcmitype/StillImage" /><dc:title></dc:title></cc:Work></rdf:RDF></metadata><sodipodi:namedview
   pagecolor="#ffffff"
   bordercolor="#666666"
   borderopacity="1"
   objecttolerance="10"
   gridtolerance="10"
   guidetolerance="10"
   inkscape:pageopacity="0"
   inkscape:pageshadow="2"
   inkscape:window-width="2048"
   inkscape:window-height="1076"
   id="namedview8"
   showgrid="true"
   inkscape:snap-global="false"
   inkscape:zoom="45.8125"
   inkscape:cx="0.032742178"
   inkscape:cy="7.9126876"
   inkscape:window-x="0"
   inkscape:window-y="25"
   inkscape:window-maximized="1"
   inkscape:current-layer="svg2"><inkscape:grid
     type="xygrid"
     id="grid2982" /></sodipodi:namedview>
<defs
   id="defs4"><inkscape:perspective
   sodipodi:type="inkscape:persp3d"
   inkscape:vp_x="0 : 8 : 1"
   inkscape:vp_y="0 : 1000 : 0"
   inkscape:vp_z="16 : 8 : 1"
   inkscape:persp3d-origin="8 : 5.3333333 : 1"
   id="perspective8" />
</defs>
<path
   style="fill:#333333;fill-opacity:1"
   d="M12,16H0v-2.9l5.2-2.8C5.7,10,5.8,9.5,5.4,9C5.4,9,4,7.2,4,5.2C4,2.3,5.8,0,8,0s4,2.3,4,5.2  c0,1.1-0.4,2.1-0.8,2.8C9.4,8.4,8,10,8,12C8,14.2,9.8,16,12,16z M12,16h4v-3l-0.1-0.1C15.5,14.6,13.9,16,12,16z M15,11h-2V9h-2v2H9  v2h2v2h2v-2h2V11z"
   id="path6"
   inkscape:export-xdpi="90"
   inkscape:export-ydpi="90" />
</svg>