<?xml version="1.0" encoding="UTF-8" standalone="no"?>
<!-- Created with Inkscape (http://www.inkscape.org/) -->

<svg
   xmlns:dc="http://purl.org/dc/elements/1.1/"
   xmlns:cc="http://creativecommons.org/ns#"
   xmlns:rdf="http://www.w3.org/1999/02/22-rdf-syntax-ns#"
   xmlns:svg="http://www.w3.org/2000/svg"
   xmlns="http://www.w3.org/2000/svg"
   xmlns:sodipodi="http://sodipodi.sourceforge.net/DTD/sodipodi-0.dtd"
   xmlns:inkscape="http://www.inkscape.org/namespaces/inkscape"
   version="1.1"
   width="16"
   height="16"
   viewBox="0 0 16 16"
   id="svg2"
   xml:space="preserve"
   style="overflow:visible"
   inkscape:version="0.47 r22583"
   sodipodi:docname="enrolusers.svg"><sodipodi:namedview
   pagecolor="#ffffff"
   bordercolor="#666666"
   borderopacity="1"
   objecttolerance="10"
   gridtolerance="10"
   guidetolerance="10"
   inkscape:pageopacity="0"
   inkscape:pageshadow="2"
   inkscape:window-width="2048"
   inkscape:window-height="1076"
   id="namedview6"
   showgrid="true"
   inkscape:snap-global="false"
   inkscape:zoom="52.3125"
   inkscape:cx="8"
   inkscape:cy="8"
   inkscape:window-x="0"
   inkscape:window-y="25"
   inkscape:window-maximized="1"
   inkscape:current-layer="svg2"><inkscape:grid
     type="xygrid"
     id="grid2983" /></sodipodi:namedview><metadata
   id="metadata10"><rdf:RDF><cc:Work
       rdf:about=""><dc:format>image/svg+xml</dc:format><dc:type
         rdf:resource="http://purl.org/dc/dcmitype/StillImage" /><dc:title></dc:title></cc:Work></rdf:RDF></metadata>
<defs
   id="defs4"><inkscape:perspective
   sodipodi:type="inkscape:persp3d"
   inkscape:vp_x="0 : 8 : 1"
   inkscape:vp_y="0 : 1000 : 0"
   inkscape:vp_z="16 : 8 : 1"
   inkscape:persp3d-origin="8 : 5.3333333 : 1"
   id="perspective8" />
</defs>
<path
   d="M 12,16 H 0 V 13.1 L 5.2,10.3 C 5.7,10 5.8,9.5 5.4,9 5.4,9 4,7.2 4,5.2 4,2.3 5.8,0 8,0 10.2,0 12,2.3 12,5.2 12,6.3 11.6,7.3 11.2,8 9.4,8.4 8,10 8,12 c 0,2.2 1.8,4 4,4 z m 0,0 h 4 V 13 L 15.9,12.9 C 15.5,14.6 13.9,16 12,16 z m 3,-5 H 13 V 9 h -2 v 2 H 9 v 2 h 2 v 2 h 2 v -2 h 2 v -2 z"
   id="path6"
   style="fill:#333333;fill-opacity:1" />
</svg>