<?xml version="1.0" encoding="UTF-8" standalone="no"?>
<!-- Created with Inkscape (http://www.inkscape.org/) -->

<svg
   xmlns:dc="http://purl.org/dc/elements/1.1/"
   xmlns:cc="http://creativecommons.org/ns#"
   xmlns:rdf="http://www.w3.org/1999/02/22-rdf-syntax-ns#"
   xmlns:svg="http://www.w3.org/2000/svg"
   xmlns="http://www.w3.org/2000/svg"
   xmlns:sodipodi="http://sodipodi.sourceforge.net/DTD/sodipodi-0.dtd"
   xmlns:inkscape="http://www.inkscape.org/namespaces/inkscape"
   width="16px"
   height="16px"
   id="svg5368"
   version="1.1"
   inkscape:version="0.47 r22583"
   sodipodi:docname="grademark.svg">
  <defs
     id="defs5370">
    <inkscape:perspective
       sodipodi:type="inkscape:persp3d"
       inkscape:vp_x="0 : 8 : 1"
       inkscape:vp_y="0 : 1000 : 0"
       inkscape:vp_z="16 : 8 : 1"
       inkscape:persp3d-origin="8 : 5.3333333 : 1"
       id="perspective11" />
  </defs>
  <sodipodi:namedview
     id="base"
     pagecolor="#ffffff"
     bordercolor="#666666"
     borderopacity="1.0"
     inkscape:pageopacity="0.0"
     inkscape:pageshadow="2"
     inkscape:zoom="42.5625"
     inkscape:cx="-0.57562404"
     inkscape:cy="5.8290939"
     inkscape:current-layer="layer1"
     showgrid="true"
     inkscape:grid-bbox="true"
     inkscape:document-units="px"
     inkscape:snap-global="false"
     inkscape:window-width="2048"
     inkscape:window-height="1076"
     inkscape:window-x="0"
     inkscape:window-y="25"
     inkscape:window-maximized="1">
    <inkscape:grid
       type="xygrid"
       id="grid5376" />
  </sodipodi:namedview>
  <metadata
     id="metadata5373">
    <rdf:RDF>
      <cc:Work
         rdf:about="">
        <dc:format>image/svg+xml</dc:format>
        <dc:type
           rdf:resource="http://purl.org/dc/dcmitype/StillImage" />
        <dc:title></dc:title>
      </cc:Work>
    </rdf:RDF>
  </metadata>
  <g
     id="layer1"
     inkscape:label="Layer 1"
     inkscape:groupmode="layer">
    <path
       style="fill:#333333;fill-opacity:1;fill-rule:evenodd;stroke:#d5500f;stroke-width:0;stroke-linecap:butt;stroke-linejoin:miter;stroke-miterlimit:4;stroke-opacity:0.94117647000000004;stroke-dasharray:none"
       d="m 11.886859,9.5847254 c -0.105487,0.5379366 -1.096203,1.6642196 -1.415578,2.0746556 -0.9835524,1.263996 -0.4981058,2.449329 -1.7068471,3.242508 -0.4768687,0.312925 -1.1600958,-0.296692 -1.752063,-0.296692 -0.7086258,0 -1.3197165,0.48655 -1.9175301,0.14794 C 3.8233224,14.032927 3.7321416,12.732238 3.1840868,11.242495 3.023148,10.805024 2.4063146,9.9537954 2.2768248,9.5847254 1.6718988,7.8605793 2.0353971,6.5733167 3.9554688,5.2752417 4.9513366,4.60198 6.0732356,5.5345021 7.2670949,5.5345021 c 1.2696096,0 2.0079966,-0.7822744 3.0979991,-0.093228 1.518477,0.9599065 1.850672,2.4660318 1.521765,4.1434513 z"
       id="path3763"
       inkscape:connector-curvature="0"
       sodipodi:nodetypes="sssssssssss" />
    <path
       style="fill:#333333;fill-opacity:1;fill-rule:evenodd;stroke:#d5500f;stroke-width:0;stroke-linecap:butt;stroke-linejoin:miter;stroke-miterlimit:4;stroke-opacity:0.94117647000000004;stroke-dasharray:none"
       d="M 14.999131,5.628958 C 14.729358,7.0836519 12.672185,7.7496579 10.676755,5.5001933 9.7495333,4.4549294 8.5566824,5.1433114 7.6301212,5.1573235 6.9171198,5.1681063 6.9484543,4.6462619 7.0302265,4.3829561 7.2003871,3.8350403 8.2919031,2.5348421 10.616981,3.1585792 12.073654,3.549355 12.424609,5.18126 13.208335,5.4753839 14.070752,5.7990381 15.050768,5.3505232 14.999131,5.628958 z"
       id="path3765"
       inkscape:connector-curvature="0"
       sodipodi:nodetypes="sssssss" />
    <path
       style="fill:#333333;fill-opacity:1;stroke:#d5500f;stroke-width:0;stroke-linecap:butt;stroke-linejoin:miter;stroke-miterlimit:4;stroke-opacity:0.94117647000000004;stroke-dasharray:none"
       d="M 3.9845949,1.4311814 C 4.2968481,0.79766332 5.6609558,0.86559898 5.9545732,1.4678618 L 7.9950687,4.9294937 7.6784779,5.9694374 z"
       id="path3768"
       inkscape:connector-curvature="0"
       sodipodi:nodetypes="ccccc" />
  </g>
</svg>
