<?xml version="1.0" encoding="UTF-8" standalone="no"?>
<!-- Created with Inkscape (http://www.inkscape.org/) -->

<svg
   xmlns:dc="http://purl.org/dc/elements/1.1/"
   xmlns:cc="http://creativecommons.org/ns#"
   xmlns:rdf="http://www.w3.org/1999/02/22-rdf-syntax-ns#"
   xmlns:svg="http://www.w3.org/2000/svg"
   xmlns="http://www.w3.org/2000/svg"
   xmlns:sodipodi="http://sodipodi.sourceforge.net/DTD/sodipodi-0.dtd"
   xmlns:inkscape="http://www.inkscape.org/namespaces/inkscape"
   width="16px"
   height="16px"
   id="svg6440"
   version="1.1"
   inkscape:version="0.47 r22583"
   sodipodi:docname="group.svg">
  <defs
     id="defs6442">
    <inkscape:perspective
       sodipodi:type="inkscape:persp3d"
       inkscape:vp_x="0 : 8 : 1"
       inkscape:vp_y="0 : 1000 : 0"
       inkscape:vp_z="16 : 8 : 1"
       inkscape:persp3d-origin="8 : 5.3333333 : 1"
       id="perspective15" />
  </defs>
  <sodipodi:namedview
     id="base"
     pagecolor="#ffffff"
     bordercolor="#666666"
     borderopacity="1.0"
     inkscape:pageopacity="0.0"
     inkscape:pageshadow="2"
     inkscape:zoom="42.5625"
     inkscape:cx="3.6883623"
     inkscape:cy="7.9060206"
     inkscape:current-layer="layer1"
     showgrid="true"
     inkscape:grid-bbox="true"
     inkscape:document-units="px"
     inkscape:snap-global="false"
     inkscape:window-width="2048"
     inkscape:window-height="1076"
     inkscape:window-x="0"
     inkscape:window-y="25"
     inkscape:window-maximized="1"
     showguides="true"
     inkscape:guide-bbox="true">
    <inkscape:grid
       type="xygrid"
       id="grid6448" />
  </sodipodi:namedview>
  <metadata
     id="metadata6445">
    <rdf:RDF>
      <cc:Work
         rdf:about="">
        <dc:format>image/svg+xml</dc:format>
        <dc:type
           rdf:resource="http://purl.org/dc/dcmitype/StillImage" />
        <dc:title></dc:title>
      </cc:Work>
    </rdf:RDF>
  </metadata>
  <g
     id="layer1"
     inkscape:label="Layer 1"
     inkscape:groupmode="layer">
    <path
       sodipodi:type="arc"
       style="fill:none;stroke:#333333;stroke-width:1.16185975000000008;stroke-linecap:butt;stroke-linejoin:miter;stroke-miterlimit:4;stroke-opacity:1;stroke-dasharray:none"
       id="path4827"
       sodipodi:cx="4.4005342"
       sodipodi:cy="4.4859815"
       sodipodi:rx="1.3671563"
       sodipodi:ry="1.388518"
       d="m 5.7676904,4.4859815 a 1.3671563,1.388518 0 1 1 -2.7343125,0 1.3671563,1.388518 0 1 1 2.7343125,0 z"
       transform="matrix(1.0118288,0,0,1.0075421,-0.46636892,0.50124848)" />
    <path
       sodipodi:type="arc"
       style="fill:none;stroke:#333333;stroke-width:0.95431763000000003;stroke-linecap:butt;stroke-linejoin:miter;stroke-miterlimit:4;stroke-opacity:1;stroke-dasharray:none"
       id="path4829"
       sodipodi:cx="8.8117495"
       sodipodi:cy="4.3791723"
       sodipodi:rx="1.3351135"
       sodipodi:ry="1.2176235"
       d="m 10.146863,4.3791723 a 1.3351135,1.2176235 0 1 1 -2.6702271,0 1.3351135,1.2176235 0 1 1 2.6702271,0 z"
       transform="matrix(1.107967,0,0,1.1788155,-1.7788591,-2.1579952)" />
    <path
       sodipodi:type="arc"
       style="fill:none;stroke:#333333;stroke-width:1.08768748999999998;stroke-linecap:butt;stroke-linejoin:miter;stroke-miterlimit:4;stroke-opacity:1;stroke-dasharray:none"
       id="path4833"
       sodipodi:cx="11.204272"
       sodipodi:cy="7.3484645"
       sodipodi:rx="1.2069426"
       sodipodi:ry="1.2389853"
       d="m 12.411215,7.3484645 a 1.2069426,1.2389853 0 1 1 -2.4138853,0 1.2069426,1.2389853 0 1 1 2.4138853,0 z"
       transform="matrix(1.1604011,0,0,1.1090508,-1.0006718,-3.1494098)" />
    <path
       style="fill:none;stroke:#333333;stroke-width:1.21632706999999995;stroke-linecap:butt;stroke-linejoin:round;stroke-miterlimit:4;stroke-opacity:1;stroke-dasharray:none"
       d="m 1.677764,6.6179892 c 1.6538196,0.5410292 3.1544219,0.636038 4.4276984,0.069299 l 0.2238038,0.023891 C 6.4214446,7.6641603 6.4869204,8.1409193 6.0431179,9.0386427 5.6448922,9.9630211 5.2768953,10.783723 5.4846341,11.519648 3.3988619,12.85418 2.3499889,12.630629 0.70652692,11.283958 0.76663189,9.951512 0.08228455,9.2484054 1.677764,6.6179892 z"
       id="path4835"
       inkscape:connector-curvature="0"
       sodipodi:nodetypes="ccccccc" />
    <path
       style="fill:none;stroke:#333333;stroke-width:1.15276492000000008;stroke-linecap:butt;stroke-linejoin:round;stroke-miterlimit:4;stroke-opacity:1;stroke-dasharray:none"
       d="m 10.365359,6.6550445 c 1.685149,0.5358281 2.768451,0.4365191 3.988136,-0.069672 1.430535,1.5334467 1.04255,3.0668945 0.948207,4.6003425 -0.103723,1.720883 -4.233447,1.592302 -4.112933,0.09259 C 11.204778,11.079023 11.048274,9.6904315 10.446471,8.8823825 10.238498,8.6031358 9.2450868,8.7392655 9.7047266,8.2267533 10.3284,7.5313392 11.161744,6.966989 10.365359,6.6550445 z"
       id="path4837"
       inkscape:connector-curvature="0"
       sodipodi:nodetypes="cccsssc" />
    <path
       style="fill:none;stroke:#333333;stroke-width:1.14261436000000005;stroke-linecap:round;stroke-linejoin:round;stroke-miterlimit:4;stroke-opacity:1;stroke-dasharray:none"
       d="m 6.5215701,8.5893616 3.9348339,0 c 1.195601,1.7313044 1.001556,3.1786174 0.786967,4.6217334 -1.5466748,1.310518 -3.2373499,1.908869 -5.4349898,0 C 5.3776585,11.643194 5.511096,10.098356 6.5215701,8.5893616 z"
       id="rect4839"
       inkscape:connector-curvature="0"
       sodipodi:nodetypes="ccccc" />
    <path
       sodipodi:type="arc"
       style="fill:none;stroke:#333333;stroke-width:0.80138551999999985;stroke-linecap:butt;stroke-linejoin:miter;stroke-miterlimit:4;stroke-opacity:1;stroke-dasharray:none"
       id="path4831"
       sodipodi:cx="7.092123"
       sodipodi:cy="7.3271027"
       sodipodi:rx="1.1962616"
       sodipodi:ry="1.1748998"
       d="m 8.2883847,7.3271027 a 1.1962616,1.1748998 0 1 1 -2.3925233,0 1.1962616,1.1748998 0 1 1 2.3925233,0 z"
       transform="matrix(1.6363664,0,0,1.2279863,-3.1135717,-2.0000357)" />
  </g>
</svg>
