<?xml version="1.0" encoding="UTF-8" standalone="no"?>
<!-- Created with Inkscape (http://www.inkscape.org/) -->

<svg
   xmlns:dc="http://purl.org/dc/elements/1.1/"
   xmlns:cc="http://creativecommons.org/ns#"
   xmlns:rdf="http://www.w3.org/1999/02/22-rdf-syntax-ns#"
   xmlns:svg="http://www.w3.org/2000/svg"
   xmlns="http://www.w3.org/2000/svg"
   xmlns:sodipodi="http://sodipodi.sourceforge.net/DTD/sodipodi-0.dtd"
   xmlns:inkscape="http://www.inkscape.org/namespaces/inkscape"
   width="32"
   height="32"
   id="svg2816"
   version="1.1"
   inkscape:version="0.47 r22583"
   sodipodi:docname="bell.svg"
   inkscape:export-filename="/home/ajay/Desktop/masseg.png"
   inkscape:export-xdpi="90"
   inkscape:export-ydpi="90">
  <defs
     id="defs2818">
    <inkscape:perspective
       sodipodi:type="inkscape:persp3d"
       inkscape:vp_x="0 : 16 : 1"
       inkscape:vp_y="0 : 1000 : 0"
       inkscape:vp_z="32 : 16 : 1"
       inkscape:persp3d-origin="16 : 10.666667 : 1"
       id="perspective2824" />
  </defs>
  <sodipodi:namedview
     id="base"
     pagecolor="#ffffff"
     bordercolor="#666666"
     borderopacity="1.0"
     inkscape:pageopacity="0.0"
     inkscape:pageshadow="2"
     inkscape:zoom="25.65625"
     inkscape:cx="16"
     inkscape:cy="15.874495"
     inkscape:current-layer="layer1"
     showgrid="true"
     inkscape:grid-bbox="true"
     inkscape:document-units="px"
     inkscape:snap-global="false"
     inkscape:window-width="2048"
     inkscape:window-height="1076"
     inkscape:window-x="0"
     inkscape:window-y="25"
     inkscape:window-maximized="1">
    <inkscape:grid
       type="xygrid"
       id="grid3598"
       empspacing="5"
       visible="true"
       enabled="true"
       snapvisiblegridlinesonly="true" />
  </sodipodi:namedview>
  <metadata
     id="metadata2821">
    <rdf:RDF>
      <cc:Work
         rdf:about="">
        <dc:format>image/svg+xml</dc:format>
        <dc:type
           rdf:resource="http://purl.org/dc/dcmitype/StillImage" />
        <dc:title></dc:title>
      </cc:Work>
    </rdf:RDF>
  </metadata>
  <g
     id="layer1"
     inkscape:label="Layer 1"
     inkscape:groupmode="layer">
    <path
       style="fill:#000000;fill-rule:nonzero;stroke:#000000;stroke-width:1.20000005;stroke-linecap:butt;stroke-linejoin:round;stroke-miterlimit:4;stroke-opacity:1;stroke-dasharray:none"
       d="m 15.681412,4.7319918 c 0.470845,-0.2334978 1.666757,-0.076464 2.528544,0.023672 4.588203,0.5050785 7.257397,5.1252197 7.082755,7.5740682 l 0.205835,9.006351 c 0.972023,0.746977 1.296602,1.366271 1.798357,2.508679 0.171313,0.414303 -0.05789,1.515699 -1.145172,1.668302 L 5.8947564,25.499489 C 4.9694865,25.533447 4.2846871,24.043645 4.9915575,23.443667 5.2478538,22.876206 5.736444,21.439314 6.3811001,20.952732 l 0.069803,-8.542099 C 6.3420871,9.2915673 8.414013,5.4505887 13.203198,4.8055457 L 13.17077,6.4744356 C 9.9611042,6.8111056 7.9314181,9.740948 8.1262235,12.526989 l -0.2210647,9.304089 c -0.6326089,0.61805 -0.8737773,1.279088 -1.1162419,1.973728 l 18.4062291,0.01598 c -0.293164,-0.741324 -0.46853,-1.301044 -1.22102,-1.998617 L 23.718714,12.344665 C 23.428761,9.1504945 20.600194,6.4380745 17.218291,6.0727363 l -1.871714,0.022337 0.398511,-1.3775453 -0.06367,0.014512 -7e-6,-5.38e-5 1.4e-5,6e-6 z"
       id="path3625"
       sodipodi:nodetypes="cccccccccccccccccccccccc" />
    <rect
       style="fill:#000000;fill-opacity:1;fill-rule:nonzero;stroke:#000000;stroke-width:0;stroke-linejoin:round;stroke-miterlimit:4;stroke-opacity:1;stroke-dasharray:none"
       id="rect3627"
       width="2.6868343"
       height="5.6947408"
       x="14.659782"
       y="0.87136984"
       rx="0"
       ry="0.22309823" />
    <path
       style="fill:#000000;stroke:#000000;stroke-width:0.89999998;stroke-linecap:butt;stroke-linejoin:miter;stroke-miterlimit:4;stroke-opacity:1;stroke-dasharray:none"
       d="m 14.029615,25.608724 c 0.06466,1.138649 0.358295,1.830055 0.920883,2.397787 0.490184,0.492997 1.515208,0.585943 2.113859,-0.03581 0.518448,-0.532902 0.851102,-1.456457 0.861453,-2.335157 l 1.321429,-0.07515 c -0.09516,2.87744 -1.33821,4.198563 -2.001885,4.637038 -0.396958,0.410762 -1.689105,0.519192 -2.305233,0.165593 -1.465679,-0.894553 -2.159869,-2.306928 -2.279289,-4.753341 l 1.549846,-0.0141 -0.182081,0.02619 0.001,-0.01311 z"
       id="path3629"
       sodipodi:nodetypes="ccccccccccc" />
  </g>
</svg>
