<?xml version="1.0" encoding="UTF-8" standalone="no"?>
<!-- Created with Inkscape (http://www.inkscape.org/) -->

<svg
   xmlns:dc="http://purl.org/dc/elements/1.1/"
   xmlns:cc="http://creativecommons.org/ns#"
   xmlns:rdf="http://www.w3.org/1999/02/22-rdf-syntax-ns#"
   xmlns:svg="http://www.w3.org/2000/svg"
   xmlns="http://www.w3.org/2000/svg"
   xmlns:sodipodi="http://sodipodi.sourceforge.net/DTD/sodipodi-0.dtd"
   xmlns:inkscape="http://www.inkscape.org/namespaces/inkscape"
   width="16px"
   height="16px"
   id="svg10727"
   version="1.1"
   inkscape:version="0.47 r22583"
   sodipodi:docname="payment.svg">
  <defs
     id="defs10729">
    <inkscape:perspective
       sodipodi:type="inkscape:persp3d"
       inkscape:vp_x="0 : 8 : 1"
       inkscape:vp_y="0 : 1000 : 0"
       inkscape:vp_z="16 : 8 : 1"
       inkscape:persp3d-origin="8 : 5.3333333 : 1"
       id="perspective12" />
  </defs>
  <sodipodi:namedview
     id="base"
     pagecolor="#ffffff"
     bordercolor="#666666"
     borderopacity="1.0"
     inkscape:pageopacity="0.0"
     inkscape:pageshadow="2"
     inkscape:zoom="30.096232"
     inkscape:cx="-0.57396802"
     inkscape:cy="4.3932537"
     inkscape:current-layer="layer1"
     showgrid="true"
     inkscape:grid-bbox="true"
     inkscape:document-units="px"
     inkscape:snap-global="false"
     inkscape:window-width="2048"
     inkscape:window-height="1076"
     inkscape:window-x="0"
     inkscape:window-y="25"
     inkscape:window-maximized="1">
    <inkscape:grid
       type="xygrid"
       id="grid10735" />
  </sodipodi:namedview>
  <metadata
     id="metadata10732">
    <rdf:RDF>
      <cc:Work
         rdf:about="">
        <dc:format>image/svg+xml</dc:format>
        <dc:type
           rdf:resource="http://purl.org/dc/dcmitype/StillImage" />
        <dc:title></dc:title>
      </cc:Work>
    </rdf:RDF>
  </metadata>
  <g
     id="layer1"
     inkscape:label="Layer 1"
     inkscape:groupmode="layer">
    <g
       transform="matrix(1.0374202,0,0,1.1547284,-1.4254239,-0.10191314)"
       style="font-size:22.37649917999999971px;font-style:normal;font-weight:normal;line-height:125%;letter-spacing:0px;word-spacing:0px;fill:#333333;fill-opacity:1;stroke:none;font-family:Sans"
       id="text4296">
      <path
         d="M 4.2808984,8.7981952 6.1577887,8.7364272 C 6.2670462,9.51582 6.6390958,10.418309 7.138054,10.833494 c 0.4989511,0.415191 1.196395,0.622785 2.0923338,0.622784 0.9032112,1e-6 1.5733402,-0.18392 2.0103882,-0.551765 0.437033,-0.36784 0.655554,-0.799418 0.655562,-1.2947327 C 11.89633,9.1654581 11.703303,8.8158256 11.317259,8.5608811 11.047742,8.3860691 10.377614,8.1639068 9.3068699,7.8943935 7.8646304,7.530198 6.8649001,7.2151646 6.3076761,6.9492924 5.7504466,6.6834319 5.3279741,6.3155894 5.0402572,5.8457638 4.7525374,5.3759522 4.6086782,4.8569665 4.6086792,4.2888053 4.6086782,3.7716491 4.7270433,3.2927255 4.963775,2.852033 5.2005039,2.4113604 5.5228213,2.0453389 5.9307282,1.7539675 6.2366543,1.5281743 6.6536638,1.336969 7.1817581,1.1803512 7.7098452,1.0237566 8.2761769,0.9454535 8.880755,0.94544164 c 0.9104958,1.186e-5 1.709916,0.13112406 2.398262,0.39333686 0.688332,0.2622358 1.264333,0.6580246 1.592123,1.1059808 0.327771,0.447977 0.847991,1.2302066 0.971829,1.980451 l -2.353281,-0.00228 C 11.402272,3.825648 11.217096,3.4001647 10.798272,3.0650905 10.379435,2.7300358 9.7876088,2.5625036 9.0227933,2.5624933 8.1195707,2.5625036 7.4749359,2.7118258 7.0888869,3.0104604 6.7028309,3.3091145 6.5098046,3.658747 6.5098075,4.0593588 c -2.9e-6,0.254949 0.080121,0.4843953 0.2403726,0.6883395 0.160245,0.2112444 0.4115434,0.3860606 0.7538957,0.5244492 0.1966643,0.072848 0.7757431,0.2403799 1.737238,0.5025972 1.3912402,0.3714915 2.3618342,0.6755989 2.9117852,0.9123231 0.549935,0.2367364 0.981512,0.5809058 1.294734,1.0325093 0.313203,0.4516137 0.469809,1.0124824 0.469819,1.6826079 -10e-6,0.655564 -0.191215,1.272884 -0.573616,1.851961 -0.38242,0.579081 -0.934184,1.027047 -1.655293,1.343901 -0.721125,0.316855 -1.536934,0.475282 -2.4474292,0.475282 -1.5077956,0 -2.6568481,-0.313212 -3.4471609,-0.939638 C 5.0038357,11.507267 4.2050019,10.31405 4.2808984,8.7981952 z"
         id="path4301"
         inkscape:connector-curvature="0"
         style="fill:#333333;fill-opacity:1"
         sodipodi:nodetypes="ccssscccccscccccccccccccccccccsssc" />
    </g>
    <rect
       style="fill:#333333;fill-opacity:1;stroke:#000000;stroke-width:0;stroke-linecap:round;stroke-linejoin:miter;stroke-miterlimit:4;stroke-opacity:1;stroke-dasharray:none"
       id="rect4303"
       width="2.045294"
       height="1.059711"
       x="6.9820318"
       y="-0.0013174363" />
    <rect
       style="fill:#333333;fill-opacity:1;stroke:#000000;stroke-width:0;stroke-linecap:round;stroke-linejoin:miter;stroke-miterlimit:4;stroke-opacity:1;stroke-dasharray:none"
       id="rect4305"
       width="1.9538009"
       height="1.9820936"
       x="7.0240493"
       y="13.995729" />
  </g>
</svg>
