<?xml version="1.0" encoding="UTF-8" standalone="no"?>
<!-- Created with Inkscape (http://www.inkscape.org/) -->

<svg
   xmlns:dc="http://purl.org/dc/elements/1.1/"
   xmlns:cc="http://creativecommons.org/ns#"
   xmlns:rdf="http://www.w3.org/1999/02/22-rdf-syntax-ns#"
   xmlns:svg="http://www.w3.org/2000/svg"
   xmlns="http://www.w3.org/2000/svg"
   xmlns:sodipodi="http://sodipodi.sourceforge.net/DTD/sodipodi-0.dtd"
   xmlns:inkscape="http://www.inkscape.org/namespaces/inkscape"
   width="16px"
   height="16px"
   id="svg3012"
   version="1.1"
   inkscape:version="0.47 r22583"
   sodipodi:docname="questions.svg">
  <defs
     id="defs3014">
    <inkscape:perspective
       sodipodi:type="inkscape:persp3d"
       inkscape:vp_x="0 : 8 : 1"
       inkscape:vp_y="0 : 1000 : 0"
       inkscape:vp_z="16 : 8 : 1"
       inkscape:persp3d-origin="8 : 5.3333333 : 1"
       id="perspective16" />
  </defs>
  <sodipodi:namedview
     id="base"
     pagecolor="#ffffff"
     bordercolor="#666666"
     borderopacity="1.0"
     inkscape:pageopacity="0.0"
     inkscape:pageshadow="2"
     inkscape:zoom="30.096232"
     inkscape:cx="-0.89340222"
     inkscape:cy="7.998602"
     inkscape:current-layer="layer1"
     showgrid="true"
     inkscape:grid-bbox="true"
     inkscape:document-units="px"
     inkscape:snap-global="false"
     inkscape:window-width="2048"
     inkscape:window-height="1076"
     inkscape:window-x="0"
     inkscape:window-y="25"
     inkscape:window-maximized="1">
    <inkscape:grid
       type="xygrid"
       id="grid3020" />
  </sodipodi:namedview>
  <metadata
     id="metadata3017">
    <rdf:RDF>
      <cc:Work
         rdf:about="">
        <dc:format>image/svg+xml</dc:format>
        <dc:type
           rdf:resource="http://purl.org/dc/dcmitype/StillImage" />
        <dc:title></dc:title>
      </cc:Work>
    </rdf:RDF>
  </metadata>
  <g
     id="layer1"
     inkscape:label="Layer 1"
     inkscape:groupmode="layer">
    <rect
       style="fill:#333333;fill-opacity:1;stroke:#000000;stroke-width:0;stroke-linecap:round;stroke-linejoin:round;stroke-miterlimit:4;stroke-opacity:0.99159666000000002;stroke-dasharray:none;stroke-dashoffset:0"
       id="rect4829"
       width="2.9960084"
       height="2.9830511"
       x="0.01438161"
       y="0.037230976" />
    <rect
       y="-0.0044898926"
       x="12.98961"
       height="2.9830511"
       width="3.066493"
       id="rect4831"
       style="fill:#333333;fill-opacity:1;stroke:#000000;stroke-width:0;stroke-linecap:round;stroke-linejoin:round;stroke-miterlimit:4;stroke-opacity:0.99159666000000002;stroke-dasharray:none;stroke-dashoffset:0" />
    <rect
       style="fill:#333333;fill-opacity:1;stroke:#000000;stroke-width:0;stroke-linecap:round;stroke-linejoin:round;stroke-miterlimit:4;stroke-opacity:0.99159666000000002;stroke-dasharray:none;stroke-dashoffset:0"
       id="rect4833"
       width="2.9960084"
       height="2.9830511"
       x="0.014381848"
       y="6.0241938" />
    <rect
       y="6.0241947"
       x="12.989609"
       height="2.9830511"
       width="3.066493"
       id="rect4835"
       style="fill:#333333;fill-opacity:1;stroke:#000000;stroke-width:0;stroke-linecap:round;stroke-linejoin:round;stroke-miterlimit:4;stroke-opacity:0.99159666000000002;stroke-dasharray:none;stroke-dashoffset:0" />
    <rect
       style="fill:#333333;fill-opacity:1;stroke:#000000;stroke-width:0;stroke-linecap:round;stroke-linejoin:round;stroke-miterlimit:4;stroke-opacity:0.99159666000000002;stroke-dasharray:none;stroke-dashoffset:0"
       id="rect4837"
       width="3.066493"
       height="2.9830511"
       x="12.98961"
       y="12.011155" />
    <path
       style="fill:#333333;fill-opacity:1;stroke:#000000;stroke-width:0;stroke-linecap:round;stroke-linejoin:round;stroke-miterlimit:4;stroke-opacity:0.99159666000000002;stroke-dashoffset:0"
       d="m 0.03524233,12.011155 2.97251367,0.04699 0,2.912566 -2.97251367,0.0235 z"
       id="rect4839"
       inkscape:connector-curvature="0"
       sodipodi:nodetypes="ccccc" />
    <g
       transform="matrix(0.9351504,0,0,1.0693467,0.02349493,-2.3684288e-6)"
       style="font-size:16.53905677999999924px;font-style:normal;font-variant:normal;font-weight:normal;font-stretch:normal;line-height:125%;letter-spacing:0px;word-spacing:0px;fill:#333333;fill-opacity:1;stroke:none;font-family:Franklin Gothic Medium;-inkscape-font-specification:Franklin Gothic Medium"
       id="text3759">
      <path
         d="m 9.6372092,10.258743 -2.1023709,0 0,-0.9144507 C 7.5348383,8.978198 7.3142057,8.5382027 7.5810514,8.45822 9.161179,7.984602 9.4101807,7.6198873 9.9108788,7.2322475 10.675374,6.6454191 10.680762,5.8478202 10.680768,5.1909884 10.680762,4.6956865 10.531361,4.3026689 10.232566,4.0119346 9.9337593,3.7212183 9.5447796,3.5758556 9.0656252,3.5758461 7.956558,3.5758556 7.6541641,4.1013639 7.4549655,5.6357404 L 5.3427223,5.5624711 C 5.4503981,4.4157288 5.8743725,3.5152879 6.6146469,2.8611457 7.3549181,2.2070239 8.2418995,1.879958 9.2755937,1.8799468 10.303896,1.879958 11.154536,2.1854887 11.827519,2.79654 c 0.672968,0.6110718 1.009456,1.3715339 1.009463,2.2813884 -7e-6,0.4522474 -0.09288,0.8816056 -0.278612,1.288076 -0.185748,0.4064838 -0.397063,0.7214362 -0.633943,0.9448582 -0.236894,0.2234336 -0.335602,0.4832778 -1.100096,1.0431886 -0.215358,0.1561349 -0.377769,0.4180835 -1.1907103,0.6100763 -0.059226,0.1480587 0.00897,0.7993094 0.00359,1.2946155 z m 0.021538,0.949011 -0.025124,1.865129 -2.0987851,-0.02197 0.025124,-1.821187 z"
         id="path3764"
         inkscape:connector-curvature="0"
         sodipodi:nodetypes="ccssccccccsccccscccccccc"
         style="fill:#333333;fill-opacity:1" />
    </g>
  </g>
</svg>
