<?xml version="1.0" encoding="UTF-8" standalone="no"?>
<!-- Created with Inkscape (http://www.inkscape.org/) -->

<svg
   xmlns:dc="http://purl.org/dc/elements/1.1/"
   xmlns:cc="http://creativecommons.org/ns#"
   xmlns:rdf="http://www.w3.org/1999/02/22-rdf-syntax-ns#"
   xmlns:svg="http://www.w3.org/2000/svg"
   xmlns="http://www.w3.org/2000/svg"
   xmlns:sodipodi="http://sodipodi.sourceforge.net/DTD/sodipodi-0.dtd"
   xmlns:inkscape="http://www.inkscape.org/namespaces/inkscape"
   width="16px"
   height="16px"
   id="svg4859"
   version="1.1"
   inkscape:version="0.47 r22583"
   sodipodi:docname="roles.svg">
  <defs
     id="defs4861">
    <inkscape:perspective
       sodipodi:type="inkscape:persp3d"
       inkscape:vp_x="0 : 8 : 1"
       inkscape:vp_y="0 : 1000 : 0"
       inkscape:vp_z="16 : 8 : 1"
       inkscape:persp3d-origin="8 : 5.3333333 : 1"
       id="perspective16" />
  </defs>
  <sodipodi:namedview
     id="base"
     pagecolor="#ffffff"
     bordercolor="#666666"
     borderopacity="1.0"
     inkscape:pageopacity="0.0"
     inkscape:pageshadow="2"
     inkscape:zoom="30.096232"
     inkscape:cx="-8.3920812"
     inkscape:cy="7.867093"
     inkscape:current-layer="layer1"
     showgrid="true"
     inkscape:grid-bbox="true"
     inkscape:document-units="px"
     inkscape:snap-global="false"
     inkscape:window-width="2048"
     inkscape:window-height="1076"
     inkscape:window-x="0"
     inkscape:window-y="25"
     inkscape:window-maximized="1">
    <inkscape:grid
       type="xygrid"
       id="grid4867" />
  </sodipodi:namedview>
  <metadata
     id="metadata4864">
    <rdf:RDF>
      <cc:Work
         rdf:about="">
        <dc:format>image/svg+xml</dc:format>
        <dc:type
           rdf:resource="http://purl.org/dc/dcmitype/StillImage" />
        <dc:title></dc:title>
      </cc:Work>
    </rdf:RDF>
  </metadata>
  <g
     id="layer1"
     inkscape:label="Layer 1"
     inkscape:groupmode="layer">
    <path
       style="fill:none;stroke:#333333;stroke-width:1.60672176000000011;stroke-linecap:butt;stroke-linejoin:round;stroke-miterlimit:4;stroke-opacity:1;stroke-dasharray:none"
       d="M 8.4365219,0.80799955 15.240448,2.8363849 13.599245,8.9347113 10.70335,10.244513 8.9396593,9.934579 8.3999672,5.8812269 6.786387,5.6610766 z"
       id="path12699"
       inkscape:connector-curvature="0"
       sodipodi:nodetypes="cccccccc" />
    <path
       style="fill:none;stroke:#333333;stroke-width:1.63693500000000003;stroke-linecap:round;stroke-linejoin:round;stroke-miterlimit:4;stroke-opacity:1;stroke-dasharray:none"
       d="M 0.79815299,6.4636185 8.5102787,5.8368253 9.1864449,12.915366 6.8797555,14.94214 4.3137579,15.200389 1.4743185,13.542151 z"
       id="rect12701"
       inkscape:connector-curvature="0"
       sodipodi:nodetypes="ccccccc" />
    <path
       sodipodi:type="arc"
       style="fill:none;stroke:#333333;stroke-width:1px;stroke-linecap:butt;stroke-linejoin:miter;stroke-opacity:1"
       id="path12704"
       sodipodi:cx="9.9191656"
       sodipodi:cy="3.5045633"
       sodipodi:rx="0.30247718"
       sodipodi:ry="0.31290743"
       d="m 10.221643,3.5045633 a 0.30247718,0.31290743 0 1 1 -0.6049546,0 0.30247718,0.31290743 0 1 1 0.6049546,0 z"
       transform="translate(0.14705784,0.66910515)" />
    <path
       sodipodi:type="arc"
       style="fill:none;stroke:#333333;stroke-width:1px;stroke-linecap:butt;stroke-linejoin:miter;stroke-opacity:1"
       id="path12708"
       sodipodi:cx="12.808344"
       sodipodi:cy="4.2033896"
       sodipodi:rx="0.31290743"
       sodipodi:ry="0.32333767"
       d="m 13.121251,4.2033896 a 0.31290743,0.32333767 0 1 1 -0.625815,0 0.31290743,0.32333767 0 1 1 0.625815,0 z"
       transform="translate(-0.55607632,0.95652995)" />
    <path
       sodipodi:type="arc"
       style="fill:none;stroke:#333333;stroke-width:1px;stroke-linecap:butt;stroke-linejoin:miter;stroke-opacity:1"
       id="path12710"
       sodipodi:cx="1.8565841"
       sodipodi:cy="7.2177315"
       sodipodi:rx="0.29204693"
       sodipodi:ry="0.27118644"
       d="m 2.148631,7.2177315 a 0.29204693,0.27118644 0 1 1 -0.5840939,0 0.29204693,0.27118644 0 1 1 0.5840939,0 z"
       transform="translate(1.79903,1.4842857)" />
    <path
       sodipodi:type="arc"
       style="fill:none;stroke:#333333;stroke-width:1px;stroke-linecap:butt;stroke-linejoin:miter;stroke-opacity:1"
       id="path12712"
       sodipodi:cx="5.1629725"
       sodipodi:cy="6.9569755"
       sodipodi:rx="0.30247718"
       sodipodi:ry="0.28161669"
       d="m 5.4654496,6.9569755 a 0.30247718,0.28161669 0 1 1 -0.6049543,0 0.30247718,0.28161669 0 1 1 0.6049543,0 z"
       transform="translate(0.97922702,1.6256871)" />
    <path
       sodipodi:type="arc"
       style="fill:none;stroke:#333333;stroke-width:1px;stroke-linecap:butt;stroke-linejoin:miter;stroke-opacity:1"
       id="path12714"
       sodipodi:cx="3.8383312"
       sodipodi:cy="11.535854"
       sodipodi:rx="1.5853976"
       sodipodi:ry="0.12516297"
       d="m 5.4237288,11.535854 a 1.5853976,0.12516297 0 1 1 -3.1707952,0 1.5853976,0.12516297 0 1 1 3.1707952,0 z"
       transform="matrix(0.86070809,-0.06226957,0.09020885,0.75914719,0.58315629,3.1688144)" />
    <path
       sodipodi:type="arc"
       style="fill:none;stroke:#333333;stroke-width:1px;stroke-linecap:butt;stroke-linejoin:miter;stroke-opacity:1"
       id="path12716"
       sodipodi:cx="10.764015"
       sodipodi:cy="6.5710559"
       sodipodi:rx="1.4810952"
       sodipodi:ry="0.10430248"
       d="m 12.24511,6.5710559 a 1.4810952,0.10430248 0 1 1 -2.96219,0 1.4810952,0.10430248 0 1 1 2.96219,0 z"
       transform="matrix(0.8074277,0.34420623,-0.27778901,1.0004774,3.4580605,-3.24922)" />
  </g>
</svg>
