<?xml version="1.0" encoding="UTF-8" standalone="no"?>
<!-- Created with Inkscape (http://www.inkscape.org/) -->

<svg
   xmlns:dc="http://purl.org/dc/elements/1.1/"
   xmlns:cc="http://creativecommons.org/ns#"
   xmlns:rdf="http://www.w3.org/1999/02/22-rdf-syntax-ns#"
   xmlns:svg="http://www.w3.org/2000/svg"
   xmlns="http://www.w3.org/2000/svg"
   xmlns:sodipodi="http://sodipodi.sourceforge.net/DTD/sodipodi-0.dtd"
   xmlns:inkscape="http://www.inkscape.org/namespaces/inkscape"
   width="16px"
   height="16px"
   id="svg7518"
   version="1.1"
   inkscape:version="0.47 r22583"
   sodipodi:docname="setting.svg">
  <defs
     id="defs7520">
    <inkscape:perspective
       sodipodi:type="inkscape:persp3d"
       inkscape:vp_x="0 : 8 : 1"
       inkscape:vp_y="0 : 1000 : 0"
       inkscape:vp_z="16 : 8 : 1"
       inkscape:persp3d-origin="8 : 5.3333333 : 1"
       id="perspective10" />
  </defs>
  <sodipodi:namedview
     id="base"
     pagecolor="#ffffff"
     bordercolor="#666666"
     borderopacity="1.0"
     inkscape:pageopacity="0.0"
     inkscape:pageshadow="2"
     inkscape:zoom="42.5625"
     inkscape:cx="0.22260726"
     inkscape:cy="7.4314822"
     inkscape:current-layer="layer1"
     showgrid="true"
     inkscape:grid-bbox="true"
     inkscape:document-units="px"
     inkscape:snap-global="false"
     inkscape:window-width="2048"
     inkscape:window-height="1076"
     inkscape:window-x="0"
     inkscape:window-y="25"
     inkscape:window-maximized="1">
    <inkscape:grid
       type="xygrid"
       id="grid7526" />
  </sodipodi:namedview>
  <metadata
     id="metadata7523">
    <rdf:RDF>
      <cc:Work
         rdf:about="">
        <dc:format>image/svg+xml</dc:format>
        <dc:type
           rdf:resource="http://purl.org/dc/dcmitype/StillImage" />
        <dc:title></dc:title>
      </cc:Work>
    </rdf:RDF>
  </metadata>
  <g
     id="layer1"
     inkscape:label="Layer 1"
     inkscape:groupmode="layer">
    <path
       sodipodi:type="arc"
       style="fill:none;stroke:#333333;stroke-width:1.51354312999999996;stroke-linecap:butt;stroke-linejoin:miter;stroke-miterlimit:4;stroke-opacity:1;stroke-dasharray:none"
       id="path4843"
       sodipodi:cx="7.9060206"
       sodipodi:cy="7.9765053"
       sodipodi:rx="4.7107196"
       sodipodi:ry="4.8281937"
       d="m 12.61674,7.9765053 a 4.7107196,4.8281937 0 1 1 -9.4214389,0 4.7107196,4.8281937 0 1 1 9.4214389,0 z"
       transform="matrix(0.9141733,0,0,0.89436373,0.77094827,0.88960411)" />
    <path
       style="fill:none;stroke:#333333;stroke-width:1.48700000000000010;stroke-linecap:butt;stroke-linejoin:miter;stroke-miterlimit:4;stroke-opacity:1;stroke-dasharray:none"
       d="m 7.1996805,3.635242 0.1769603,-1.8659796 1.3796988,-0.00148 0.245423,1.907999 1.0426734,0.4777368 1.519223,-1.3764307 1.045507,0.9205043 -1.017024,1.6720152 0.569826,1.0621977 2.107074,0.072214 -0.003,1.5123962 -1.750261,0.4984622 -0.313346,1.1699268 1.724669,1.1696431 -0.79788,1.166354 -1.864242,-0.989769 -0.96006,0.937756 0.716215,1.699352 -1.4914064,0.587573 -0.80387,-1.74321 L 7.2075294,12.347737 6.1245164,14.167606 4.7664766,13.588488 5.4682624,11.698179 4.423655,10.511986 2.4506355,11.323743 1.8679841,9.9660359 3.7535184,8.9412802 3.5684113,7.5816797 1.7544533,6.462432 2.1994289,5.3055077 C 2.8087958,5.4416435 4.004091,5.9683982 4.0275297,5.7139151 L 4.8273675,4.6939414 3.7302466,3.0554532 4.8195384,2.1795468 6.2307105,3.8133022 z"
       id="path4845"
       inkscape:connector-curvature="0"
       sodipodi:nodetypes="ccccccccccccccccccccccccccccccccccccc" />
  </g>
</svg>
