<?xml version="1.0" encoding="UTF-8" standalone="no"?>
<!-- Created with Inkscape (http://www.inkscape.org/) -->

<svg
   xmlns:dc="http://purl.org/dc/elements/1.1/"
   xmlns:cc="http://creativecommons.org/ns#"
   xmlns:rdf="http://www.w3.org/1999/02/22-rdf-syntax-ns#"
   xmlns:svg="http://www.w3.org/2000/svg"
   xmlns="http://www.w3.org/2000/svg"
   xmlns:sodipodi="http://sodipodi.sourceforge.net/DTD/sodipodi-0.dtd"
   xmlns:inkscape="http://www.inkscape.org/namespaces/inkscape"
   width="16px"
   height="16px"
   id="svg2987"
   version="1.1"
   inkscape:version="0.47 r22583"
   sodipodi:docname="users.svg">
  <defs
     id="defs2989">
    <inkscape:perspective
       sodipodi:type="inkscape:persp3d"
       inkscape:vp_x="0 : 8 : 1"
       inkscape:vp_y="0 : 1000 : 0"
       inkscape:vp_z="16 : 8 : 1"
       inkscape:persp3d-origin="8 : 5.3333333 : 1"
       id="perspective12" />
  </defs>
  <sodipodi:namedview
     id="base"
     pagecolor="#ffffff"
     bordercolor="#666666"
     borderopacity="1.0"
     inkscape:pageopacity="0.0"
     inkscape:pageshadow="2"
     inkscape:zoom="30.096232"
     inkscape:cx="-7.3276052"
     inkscape:cy="4.4414938"
     inkscape:current-layer="layer1"
     showgrid="true"
     inkscape:grid-bbox="true"
     inkscape:document-units="px"
     inkscape:snap-global="false"
     inkscape:window-width="2048"
     inkscape:window-height="1076"
     inkscape:window-x="0"
     inkscape:window-y="25"
     inkscape:window-maximized="1">
    <inkscape:grid
       type="xygrid"
       id="grid2995" />
  </sodipodi:namedview>
  <metadata
     id="metadata2992">
    <rdf:RDF>
      <cc:Work
         rdf:about="">
        <dc:format>image/svg+xml</dc:format>
        <dc:type
           rdf:resource="http://purl.org/dc/dcmitype/StillImage" />
        <dc:title></dc:title>
      </cc:Work>
    </rdf:RDF>
  </metadata>
  <g
     id="layer1"
     inkscape:label="Layer 1"
     inkscape:groupmode="layer">
    <path
       style="fill:none;stroke:#333333;stroke-width:2.01116942999999981;stroke-linecap:round;stroke-linejoin:round;stroke-miterlimit:4;stroke-opacity:1;stroke-dasharray:none"
       d="M 8.4904606,4.0198357 C 10.380726,5.7569956 12.057408,5.500434 13.462502,3.9965167 15.609525,6.852205 14.98113,9.299755 14.649854,10.409384 14.270567,12.149149 10.616238,12.13094 10.183296,11.784404 9.5831654,11.304046 10.619369,11.592783 9.9347264,10.083055 9.8925384,8.773049 9.3516924,8.769412 8.7459511,7.474043 8.3977281,6.729374 8.0044666,4.8632124 8.0044666,4.8632124 8.0508914,5.1348281 8.2446305,4.3504314 8.4904606,4.0198357 z"
       id="rect5870"
       inkscape:connector-curvature="0"
       sodipodi:nodetypes="cccscssc" />
    <path
       sodipodi:type="arc"
       style="fill:none;stroke:#333333;stroke-width:1.46968830000000006;stroke-linecap:butt;stroke-linejoin:miter;stroke-miterlimit:4;stroke-opacity:1;stroke-dasharray:none"
       id="path5875"
       sodipodi:cx="10.565841"
       sodipodi:cy="4.9856586"
       sodipodi:rx="1.7418513"
       sodipodi:ry="1.9191656"
       d="m 12.307692,4.9856586 a 1.7418513,1.9191656 0 1 1 -3.4837026,0 1.7418513,1.9191656 0 1 1 3.4837026,0 z"
       transform="matrix(1.2211696,0,0,1.1208543,-1.9048054,-2.5917084)" />
    <path
       sodipodi:nodetypes="ccccc"
       inkscape:connector-curvature="0"
       id="path5889"
       d="m 3.4912971,7.0244879 c 1.9737563,2.164543 3.6405977,1.589462 4.9584809,-0.0238 2.14117,2.914473 1.5144907,4.5864061 1.1841157,6.5462261 -2.0570141,1.602045 -4.339114,2.306342 -7.3760496,0 -0.064782,-2.05902 -0.9671982,-3.493152 1.233453,-6.5224211 z"
       style="fill:none;stroke:#333333;stroke-width:2.02713369999999982;stroke-linecap:round;stroke-linejoin:round;stroke-miterlimit:4;stroke-opacity:1;stroke-dasharray:none" />
    <path
       transform="matrix(1.2083389,0,0,1.0819585,-6.7282576,0.60522065)"
       d="m 12.307692,4.9856586 a 1.7418513,1.9191656 0 1 1 -3.4837026,0 1.7418513,1.9191656 0 1 1 3.4837026,0 z"
       sodipodi:ry="1.9191656"
       sodipodi:rx="1.7418513"
       sodipodi:cy="4.9856586"
       sodipodi:cx="10.565841"
       id="path5891"
       style="fill:none;stroke:#333333;stroke-width:1.56522739000000000;stroke-linecap:butt;stroke-linejoin:miter;stroke-miterlimit:4;stroke-opacity:1;stroke-dasharray:none"
       sodipodi:type="arc" />
  </g>
</svg>
