<?xml version="1.0" encoding="UTF-8" standalone="no"?>
<!-- Created with Inkscape (http://www.inkscape.org/) -->

<svg
   xmlns:dc="http://purl.org/dc/elements/1.1/"
   xmlns:cc="http://creativecommons.org/ns#"
   xmlns:rdf="http://www.w3.org/1999/02/22-rdf-syntax-ns#"
   xmlns:svg="http://www.w3.org/2000/svg"
   xmlns="http://www.w3.org/2000/svg"
   xmlns:sodipodi="http://sodipodi.sourceforge.net/DTD/sodipodi-0.dtd"
   xmlns:inkscape="http://www.inkscape.org/namespaces/inkscape"
   width="16px"
   height="16px"
   id="svg2816"
   version="1.1"
   inkscape:version="0.47 r22583"
   sodipodi:docname="add_file.svg">
  <defs
     id="defs2818">
    <inkscape:perspective
       sodipodi:type="inkscape:persp3d"
       inkscape:vp_x="0 : 8 : 1"
       inkscape:vp_y="0 : 1000 : 0"
       inkscape:vp_z="16 : 8 : 1"
       inkscape:persp3d-origin="8 : 5.3333333 : 1"
       id="perspective2824" />
    <inkscape:perspective
       id="perspective2854"
       inkscape:persp3d-origin="0.5 : 0.33333333 : 1"
       inkscape:vp_z="1 : 0.5 : 1"
       inkscape:vp_y="0 : 1000 : 0"
       inkscape:vp_x="0 : 0.5 : 1"
       sodipodi:type="inkscape:persp3d" />
    <inkscape:path-effect
       effect="spiro"
       id="path-effect3598"
       is_visible="true" />
  </defs>
  <sodipodi:namedview
     id="base"
     pagecolor="#ffffff"
     bordercolor="#666666"
     borderopacity="1.0"
     inkscape:pageopacity="0.0"
     inkscape:pageshadow="2"
     inkscape:zoom="52.3125"
     inkscape:cx="4.5113501"
     inkscape:cy="8.0941009"
     inkscape:current-layer="layer1"
     showgrid="true"
     inkscape:grid-bbox="true"
     inkscape:document-units="px"
     inkscape:snap-global="false"
     inkscape:window-width="2048"
     inkscape:window-height="1076"
     inkscape:window-x="0"
     inkscape:window-y="25"
     inkscape:window-maximized="1">
    <inkscape:grid
       type="xygrid"
       id="grid2826" />
  </sodipodi:namedview>
  <metadata
     id="metadata2821">
    <rdf:RDF>
      <cc:Work
         rdf:about="">
        <dc:format>image/svg+xml</dc:format>
        <dc:type
           rdf:resource="http://purl.org/dc/dcmitype/StillImage" />
        <dc:title></dc:title>
      </cc:Work>
    </rdf:RDF>
  </metadata>
  <g
     id="layer1"
     inkscape:label="Layer 1"
     inkscape:groupmode="layer">
    <path
       style="fill:none;stroke:#333333;stroke-width:0.89999998;stroke-linejoin:round;stroke-miterlimit:4;stroke-opacity:1;stroke-dasharray:none"
       d="m 3.6469333,2.4264338 5.7699139,-0.00487 c 0.00727,0.6062854 -0.00998,0.071764 0.023525,0.9447382 0.00494,0.1287396 -2.8846953,-0.018828 -2.8780787,0.1177399 0.020748,0.4282399 -0.1135196,2.9729941 0.00231,3.014065 0.1991627,0.070619 2.9411259,-0.1437594 2.9328011,-0.0037 -0.058546,0.9849967 0.012038,2.3000797 0.00975,3.0096826 -1.791e-4,0.055585 2.2201755,-0.023833 2.9693495,-0.017348 0.05806,5.025e-4 0.02692,-2.5069918 0.07827,-2.4640123 l -0.0098,8.2492311 c 0,0.128381 -0.105937,0.28809 -0.245003,0.28809 l -11.58640153,0 c -0.13906742,0 -0.25102425,-0.103355 -0.25102425,-0.231736 L 0.47457572,5.0217963 C 0.55469668,3.3333589 1.2245943,2.4910415 3.42952,2.4432327 l 0.2174133,-0.016799 z"
       id="rect2821"
       sodipodi:nodetypes="ccsssssscccccccc" />
    <path
       style="fill:none;stroke:#333333;stroke-width:0.90000004;stroke-linecap:butt;stroke-linejoin:round;stroke-miterlimit:4;stroke-opacity:1;stroke-dasharray:none"
       d="m 9.5071277,0.45049986 0.00134,2.99755934 -3.0392208,-0.00375 -0.00533,3.0455971 3.0315268,0.019215 -0.00524,3.0311856 3.0114093,0.00104 0.0082,-3.0568057 3.026795,-0.016013 0.0071,-2.9884859 -3.010229,-0.028278 -0.0045,-2.9655343 -3.0214656,-0.0357618 -3.637e-4,3.166e-5"
       id="path3596"
       inkscape:path-effect="#path-effect3598"
       inkscape:original-d="m 9.5071277,0.45049986 0.00134,2.99755934 -3.0392208,-0.00375 -0.00533,3.0455971 3.0315268,0.019215 -0.00524,3.0311856 3.0114093,0.00104 0.0082,-3.0568057 3.026795,-0.016013 0.0071,-2.9884859 L 12.533479,3.4517643 12.528957,0.48623 9.5074914,0.4504682 z" />
  </g>
</svg>
