<?xml version="1.0" encoding="UTF-8" standalone="no"?>
<!-- Created with Inkscape (http://www.inkscape.org/) -->

<svg
   xmlns:dc="http://purl.org/dc/elements/1.1/"
   xmlns:cc="http://creativecommons.org/ns#"
   xmlns:rdf="http://www.w3.org/1999/02/22-rdf-syntax-ns#"
   xmlns:svg="http://www.w3.org/2000/svg"
   xmlns="http://www.w3.org/2000/svg"
   xmlns:sodipodi="http://sodipodi.sourceforge.net/DTD/sodipodi-0.dtd"
   xmlns:inkscape="http://www.inkscape.org/namespaces/inkscape"
   width="16px"
   height="16px"
   id="svg4886"
   version="1.1"
   inkscape:version="0.47 r22583"
   sodipodi:docname="help.svg">
  <defs
     id="defs4888">
    <inkscape:perspective
       sodipodi:type="inkscape:persp3d"
       inkscape:vp_x="0 : 8 : 1"
       inkscape:vp_y="0 : 1000 : 0"
       inkscape:vp_z="16 : 8 : 1"
       inkscape:persp3d-origin="8 : 5.3333333 : 1"
       id="perspective12" />
  </defs>
  <sodipodi:namedview
     id="base"
     pagecolor="#ffffff"
     bordercolor="#666666"
     borderopacity="1.0"
     inkscape:pageopacity="0.0"
     inkscape:pageshadow="2"
     inkscape:zoom="52.3125"
     inkscape:cx="8"
     inkscape:cy="8"
     inkscape:current-layer="layer1"
     showgrid="true"
     inkscape:grid-bbox="true"
     inkscape:document-units="px"
     inkscape:snap-global="false"
     inkscape:window-width="2048"
     inkscape:window-height="1076"
     inkscape:window-x="0"
     inkscape:window-y="25"
     inkscape:window-maximized="1">
    <inkscape:grid
       type="xygrid"
       id="grid4894" />
  </sodipodi:namedview>
  <metadata
     id="metadata4891">
    <rdf:RDF>
      <cc:Work
         rdf:about="">
        <dc:format>image/svg+xml</dc:format>
        <dc:type
           rdf:resource="http://purl.org/dc/dcmitype/StillImage" />
        <dc:title></dc:title>
      </cc:Work>
    </rdf:RDF>
  </metadata>
  <g
     id="layer1"
     inkscape:label="Layer 1"
     inkscape:groupmode="layer">
    <path
       sodipodi:type="arc"
       style="fill:none;stroke:#333333;stroke-width:1.30341733000000004;stroke-linecap:butt;stroke-linejoin:miter;stroke-miterlimit:4;stroke-opacity:1;stroke-dasharray:none"
       id="path3761"
       sodipodi:cx="8.1174746"
       sodipodi:cy="7.8472834"
       sodipodi:rx="6.8252568"
       sodipodi:ry="6.5315714"
       d="m 14.942731,7.8472834 a 6.8252568,6.5315714 0 1 1 -13.6505133,0 6.8252568,6.5315714 0 1 1 13.6505133,0 z"
       transform="matrix(0.93194495,0,0,0.97384905,0.44670801,0.34618313)" />
    <g
       transform="matrix(1.3306299,0,0,1.0336193,-2.1939237,-0.55389435)"
       style="font-size:10.80347442999999963px;font-style:normal;font-variant:normal;font-weight:normal;font-stretch:normal;line-height:125%;letter-spacing:0px;word-spacing:0px;fill:#333333;fill-opacity:1;stroke:#dd5500;stroke-width:0;stroke-miterlimit:4;stroke-opacity:1;stroke-dasharray:none;font-family:Sakkal Majalla;-inkscape-font-specification:Sans"
       id="text3763">
      <path
         d="M 6.6722304,10.034111 C 6.6357604,9.944486 6.6033445,9.8281425 6.5749824,9.6850804 6.5466164,9.5420232 6.5324344,9.3998252 6.5324363,9.2584864 6.5324344,9.037867 6.5840974,8.83879 6.6874255,8.6612546 6.7907494,8.4837262 6.9194004,8.3173977 7.0733789,8.1622689 7.2273524,8.0071478 7.3955104,7.8580555 7.5778533,7.7149914 7.7601903,7.5719361 7.9283483,7.4271528 8.0823277,7.2806411 8.2363003,7.1341391 8.3649513,6.9807377 8.4682811,6.8204366 8.5716033,6.6601461 8.6232663,6.483476 8.6232702,6.2904258 8.6232663,6.124965 8.5857853,5.9784581 8.5108272,5.8509047 8.4358613,5.7233637 8.3335483,5.6164998 8.2038879,5.5303128 8.0742203,5.4441387 7.9242963,5.3795033 7.7541155,5.3364063 7.5839284,5.2933228 7.4036144,5.2717777 7.213173,5.2717709 6.4930686,5.5900071 6.9941812,6.0692847 6.1562521,6.3686443 5.8060075,6.3214776 5.1803639,6.6760499 5.520602,5.2767316 5.8227321,4.2411546 6.6945144,4.4251471 7.3590451,4.4251395 c 0.3079492,7.6e-6 0.6220426,-0.016675 0.8935301,0.052263 0.2714804,0.068952 0.5582862,0.069199 0.7629166,0.2053569 0.2046216,0.1361724 0.4388148,0.3315249 0.5563275,0.5349044 0.1175033,0.2033927 0.3225095,0.5418353 0.3225144,0.8107127 -4.9e-6,0.2551003 0.069196,0.6360787 -0.036151,0.8360123 C 9.7528252,7.0643328 9.5469965,7.4013592 9.3869469,7.5685447 9.2268886,7.7357397 8.8830379,7.7638415 8.6966499,7.9086206 8.510254,8.0534081 8.1664033,8.1717527 8.0063526,8.3148085 7.8462953,8.457872 7.7135924,8.6069644 7.6082434,8.7620859 7.5028883,8.9172143 7.4502123,9.0878517 7.4502152,9.2739989 c -2.9e-6,0.158575 0.022284,0.3024964 0.066858,0.4317649 0.044569,0.1292731 0.089141,0.2387222 0.1337161,0.3283472 z M 7.219251,12.18518 c -0.1782907,0 -0.3363186,-0.05516 -0.4740845,-0.165467 -0.1337181,-0.110311 -0.200576,-0.244753 -0.2005742,-0.403326 -1.8e-6,-0.162019 0.066856,-0.29646 0.2005742,-0.403324 0.1337139,-0.113758 0.2917419,-0.170638 0.4740845,-0.170639 0.1823374,10e-7 0.3403654,0.05688 0.4740844,0.170639 0.1337129,0.106864 0.2005709,0.241305 0.2005742,0.403324 -3.3e-6,0.158573 -0.066861,0.293015 -0.2005742,0.403326 -0.1377711,0.110311 -0.295799,0.165467 -0.4740844,0.165467 z"
         style="fill:#333333;fill-opacity:1;stroke:#dd5500;stroke-width:0;stroke-miterlimit:4;stroke-opacity:1;stroke-dasharray:none;font-family:Segoe UI;-inkscape-font-specification:Segoe UI"
         id="path3791"
         inkscape:connector-curvature="0"
         sodipodi:nodetypes="cccsscsscccccccccccccssssccccscccccccs" />
    </g>
    <path
       sodipodi:type="arc"
       style="fill:#333333;fill-opacity:1;fill-rule:evenodd;stroke:#dd5500;stroke-width:0;stroke-linecap:butt;stroke-linejoin:miter;stroke-miterlimit:4;stroke-opacity:1;stroke-dasharray:none"
       id="path3785"
       sodipodi:cx="7.5183554"
       sodipodi:cy="10.65492"
       sodipodi:rx="0.72834069"
       sodipodi:ry="0.71659327"
       d="m 8.2466961,10.65492 a 0.72834069,0.71659327 0 1 1 -1.4566814,0 0.72834069,0.71659327 0 1 1 1.4566814,0 z"
       transform="matrix(1.7640372,0,0,1.5306608,-5.6033338,-4.4441625)" />
  </g>
</svg>
