<?xml version="1.0" encoding="UTF-8" standalone="no"?>
<!-- Created with Inkscape (http://www.inkscape.org/) -->

<svg
   xmlns:dc="http://purl.org/dc/elements/1.1/"
   xmlns:cc="http://creativecommons.org/ns#"
   xmlns:rdf="http://www.w3.org/1999/02/22-rdf-syntax-ns#"
   xmlns:svg="http://www.w3.org/2000/svg"
   xmlns="http://www.w3.org/2000/svg"
   xmlns:sodipodi="http://sodipodi.sourceforge.net/DTD/sodipodi-0.dtd"
   xmlns:inkscape="http://www.inkscape.org/namespaces/inkscape"
   width="16px"
   height="16px"
   id="svg7554"
   version="1.1"
   inkscape:version="0.47 r22583"
   sodipodi:docname="seeting.svg">
  <defs
     id="defs7556">
    <inkscape:perspective
       sodipodi:type="inkscape:persp3d"
       inkscape:vp_x="0 : 8 : 1"
       inkscape:vp_y="0 : 1000 : 0"
       inkscape:vp_z="16 : 8 : 1"
       inkscape:persp3d-origin="8 : 5.3333333 : 1"
       id="perspective10" />
  </defs>
  <sodipodi:namedview
     id="base"
     pagecolor="#ffffff"
     bordercolor="#666666"
     borderopacity="1.0"
     inkscape:pageopacity="0.0"
     inkscape:pageshadow="2"
     inkscape:zoom="30.096232"
     inkscape:cx="8.76344"
     inkscape:cy="8.0340006"
     inkscape:current-layer="layer1"
     showgrid="true"
     inkscape:grid-bbox="true"
     inkscape:document-units="px"
     inkscape:snap-global="false"
     inkscape:window-width="2048"
     inkscape:window-height="1076"
     inkscape:window-x="0"
     inkscape:window-y="25"
     inkscape:window-maximized="1">
    <inkscape:grid
       type="xygrid"
       id="grid7562" />
  </sodipodi:namedview>
  <metadata
     id="metadata7559">
    <rdf:RDF>
      <cc:Work
         rdf:about="">
        <dc:format>image/svg+xml</dc:format>
        <dc:type
           rdf:resource="http://purl.org/dc/dcmitype/StillImage" />
        <dc:title></dc:title>
      </cc:Work>
    </rdf:RDF>
  </metadata>
  <g
     id="layer1"
     inkscape:label="Layer 1"
     inkscape:groupmode="layer">
    <path
       style="fill:none;fill-rule:evenodd;stroke:#333333;stroke-width:1.50380753999999994;stroke-linecap:butt;stroke-linejoin:miter;stroke-miterlimit:4;stroke-opacity:1;stroke-dasharray:none"
       d="m 15.257396,8.0022658 c 0.192646,0.5555932 -1.393919,0.8253138 -2.054944,0.9599638 -1.09118,0.2222707 -1.062048,1.1731594 -0.72333,1.6756804 2.356309,3.495805 0.09615,2.804071 -1.508055,1.521721 C 10.3082,11.629755 9.7541243,12.140952 9.5574098,12.871659 9.0387331,14.798317 8.6967947,15.630502 7.7836324,15.088592 7.3347532,14.822204 7.1184997,13.633487 6.9706755,13.009805 6.8149367,12.352728 5.7995145,11.844367 5.1219741,12.285605 1.7894374,14.455868 2.2358441,11.758737 3.3592479,10.477401 3.7985509,9.976338 3.9431822,9.529763 2.7570558,8.9571396 2.4817176,8.8242155 0.45768436,8.7008391 0.785875,7.5898379 1.0665989,6.6395253 2.4786637,6.6060779 2.8170358,6.4135706 3.3653552,6.1016207 4.124558,5.5772054 3.5118398,4.8913144 2.6894816,3.9707496 1.7564613,1.0523893 4.9318746,2.8154596 5.385761,3.0674692 6.1620198,3.7248809 6.5604682,2.6957058 7.0668728,1.3876851 7.2853074,1.0831358 8.0018029,0.77846497 8.6446188,0.50512425 9.4151772,2.2046074 9.4714905,2.7146996 9.5784019,3.6831225 10.27971,3.8384325 10.912941,3.3714428 c 1.435398,-1.0585691 3.979418,-1.6672443 1.649835,1.6931752 -0.523796,0.7555761 0.03322,1.1745261 0.659376,1.6605259 0.283211,0.2198226 1.717716,0.361355 2.035244,1.2771219 z"
       id="path4287"
       inkscape:connector-curvature="0"
       sodipodi:nodetypes="sssssssssssssssssssss"
       inkscape:export-filename="C:\Users\ajay\Desktop\pix_core\a\path4290.png"
       inkscape:export-xdpi="90"
       inkscape:export-ydpi="90" />
    <path
       sodipodi:type="arc"
       style="fill:none;stroke:#333333;stroke-width:1.40188110000000021;stroke-linecap:butt;stroke-linejoin:miter;stroke-miterlimit:4;stroke-opacity:1;stroke-dasharray:none"
       id="path4290"
       sodipodi:cx="7.8644066"
       sodipodi:cy="8.0938721"
       sodipodi:rx="2.10691"
       sodipodi:ry="2.0860496"
       d="m 9.9713166,8.0938721 a 2.10691,2.0860496 0 1 1 -4.21382,0 2.10691,2.0860496 0 1 1 4.21382,0 z"
       transform="matrix(1.0643413,0,0,1.0755779,-0.36579282,-0.72932196)"
       inkscape:export-xdpi="90"
       inkscape:export-ydpi="90" />
  </g>
</svg>
