<?xml version="1.0" encoding="UTF-8" standalone="no"?>
<!-- Created with Inkscape (http://www.inkscape.org/) -->

<svg
   xmlns:dc="http://purl.org/dc/elements/1.1/"
   xmlns:cc="http://creativecommons.org/ns#"
   xmlns:rdf="http://www.w3.org/1999/02/22-rdf-syntax-ns#"
   xmlns:svg="http://www.w3.org/2000/svg"
   xmlns="http://www.w3.org/2000/svg"
   xmlns:sodipodi="http://sodipodi.sourceforge.net/DTD/sodipodi-0.dtd"
   xmlns:inkscape="http://www.inkscape.org/namespaces/inkscape"
   width="16px"
   height="16px"
   id="svg2816"
   version="1.1"
   inkscape:version="0.47 r22583"
   sodipodi:docname="delete2.svg">
  <defs
     id="defs2818">
    <inkscape:perspective
       sodipodi:type="inkscape:persp3d"
       inkscape:vp_x="0 : 8 : 1"
       inkscape:vp_y="0 : 1000 : 0"
       inkscape:vp_z="16 : 8 : 1"
       inkscape:persp3d-origin="8 : 5.3333333 : 1"
       id="perspective2824" />
  </defs>
  <sodipodi:namedview
     id="base"
     pagecolor="#ffffff"
     bordercolor="#666666"
     borderopacity="1.0"
     inkscape:pageopacity="0.0"
     inkscape:pageshadow="2"
     inkscape:zoom="52.3125"
     inkscape:cx="8"
     inkscape:cy="7.9617682"
     inkscape:current-layer="layer1"
     showgrid="true"
     inkscape:grid-bbox="true"
     inkscape:document-units="px"
     inkscape:snap-global="false"
     inkscape:window-width="2048"
     inkscape:window-height="1076"
     inkscape:window-x="0"
     inkscape:window-y="25"
     inkscape:window-maximized="1">
    <inkscape:grid
       type="xygrid"
       id="grid2826" />
  </sodipodi:namedview>
  <metadata
     id="metadata2821">
    <rdf:RDF>
      <cc:Work
         rdf:about="">
        <dc:format>image/svg+xml</dc:format>
        <dc:type
           rdf:resource="http://purl.org/dc/dcmitype/StillImage" />
        <dc:title></dc:title>
      </cc:Work>
    </rdf:RDF>
  </metadata>
  <g
     id="layer1"
     inkscape:label="Layer 1"
     inkscape:groupmode="layer">
    <path
       style="fill:#333333;fill-opacity:1;fill-rule:evenodd;stroke:#339999;stroke-width:0;stroke-linejoin:round;stroke-miterlimit:4;stroke-opacity:1"
       d="m 11.386573,3.0367579 c 1.074977,0.284316 1.368406,0.9342823 1.574465,1.6251253 0.04825,0.049802 0.04945,0.1271678 0.0027,0.1734645 L 4.7614652,12.956559 c -0.046766,0.0463 -0.1232493,0.04348 -0.1714996,-0.0064 C 3.8683983,12.685338 3.294207,12.2131 3.0155007,11.325066 c -0.04825,-0.0498 -0.049455,-0.127163 -0.00269,-0.173468 L 11.215077,3.0304294 c 0.04676,-0.046298 0.123246,-0.043473 0.171496,0.00633 z"
       id="rect3600"
       sodipodi:nodetypes="ccccccccc" />
    <path
       style="fill:#333333;fill-opacity:1;fill-rule:evenodd;stroke:#339999;stroke-width:0;stroke-linejoin:round;stroke-miterlimit:4;stroke-opacity:1"
       d="m 12.970542,11.349644 c -0.22929,1.094397 -0.922288,1.371993 -1.6485,1.591079 -0.05054,0.0488 -0.12842,0.05063 -0.174588,0.0041 L 3.0515979,4.7936425 C 3.0054286,4.7471581 3.0089555,4.6704566 3.0595059,4.621667 3.2484323,3.758691 3.6338531,3.0769746 4.7080065,3.0305903 c 0.050551,-0.04879 0.1284147,-0.050644 0.1745847,-0.00415 l 8.0958568,8.1512407 c 0.04617,0.0465 0.04264,0.123185 -0.0079,0.171976 z"
       id="rect3602"
       sodipodi:nodetypes="ccccccccc" />
  </g>
</svg>
