<?xml version="1.0" encoding="UTF-8" standalone="no"?>
<!-- Created with Inkscape (http://www.inkscape.org/) -->

<svg
   xmlns:dc="http://purl.org/dc/elements/1.1/"
   xmlns:cc="http://creativecommons.org/ns#"
   xmlns:rdf="http://www.w3.org/1999/02/22-rdf-syntax-ns#"
   xmlns:svg="http://www.w3.org/2000/svg"
   xmlns="http://www.w3.org/2000/svg"
   xmlns:sodipodi="http://sodipodi.sourceforge.net/DTD/sodipodi-0.dtd"
   xmlns:inkscape="http://www.inkscape.org/namespaces/inkscape"
   width="16px"
   height="16px"
   id="svg13871"
   version="1.1"
   inkscape:version="0.47 r22583"
   sodipodi:docname="edit_menu.svg">
  <defs
     id="defs13873">
    <inkscape:perspective
       sodipodi:type="inkscape:persp3d"
       inkscape:vp_x="0 : 8 : 1"
       inkscape:vp_y="0 : 1000 : 0"
       inkscape:vp_z="16 : 8 : 1"
       inkscape:persp3d-origin="8 : 5.3333333 : 1"
       id="perspective11" />
  </defs>
  <sodipodi:namedview
     id="base"
     pagecolor="#ffffff"
     bordercolor="#666666"
     borderopacity="1.0"
     inkscape:pageopacity="0.0"
     inkscape:pageshadow="2"
     inkscape:zoom="42.5625"
     inkscape:cx="-0.99702384"
     inkscape:cy="4.9691875"
     inkscape:current-layer="layer1"
     showgrid="true"
     inkscape:grid-bbox="true"
     inkscape:document-units="px"
     inkscape:snap-global="false"
     inkscape:window-width="2048"
     inkscape:window-height="1076"
     inkscape:window-x="0"
     inkscape:window-y="25"
     inkscape:window-maximized="1">
    <inkscape:grid
       type="xygrid"
       id="grid13879" />
  </sodipodi:namedview>
  <metadata
     id="metadata13876">
    <rdf:RDF>
      <cc:Work
         rdf:about="">
        <dc:format>image/svg+xml</dc:format>
        <dc:type
           rdf:resource="http://purl.org/dc/dcmitype/StillImage" />
        <dc:title></dc:title>
      </cc:Work>
    </rdf:RDF>
  </metadata>
  <g
     id="layer1"
     inkscape:label="Layer 1"
     inkscape:groupmode="layer">
    <path
       style="fill:none;stroke:#333333;stroke-width:1.05176497000000002;stroke-linecap:butt;stroke-linejoin:miter;stroke-miterlimit:4;stroke-opacity:1;stroke-dasharray:none;fill-opacity:1"
       d="M 9.1973444,7.1185283 C 9.9882928,9.1622223 8.972286,11.456043 6.9280299,12.241922 4.8837733,13.0278 2.5853863,12.008142 1.7944376,9.9644483 1.003489,7.9207552 2.019496,5.6269337 4.0637523,4.8410545 6.1080087,4.0551755 8.4063957,5.0748354 9.1973444,7.1185283 z"
       id="path10154"
       inkscape:connector-curvature="0"
       sodipodi:nodetypes="sssss" />
    <path
       style="fill:#333333;fill-opacity:1;stroke:#339999;stroke-width:0;stroke-linecap:butt;stroke-linejoin:round;stroke-miterlimit:4;stroke-opacity:1;stroke-dasharray:none"
       d="M 13.488019,8.9718537 15.9873,4.0397371 10.974263,4.041867 z"
       id="path10178"
       inkscape:connector-curvature="0"
       sodipodi:nodetypes="cccc" />
    <path
       style="fill:none;stroke:#333333;stroke-width:1.03584908999999992;stroke-linecap:butt;stroke-linejoin:miter;stroke-miterlimit:4;stroke-opacity:1;stroke-dasharray:none;fill-opacity:1"
       d="M 2.75257,5.4446815 2.2075442,4.3553612 3.029037,3.8688551 3.7996468,4.8120011 4.8413296,4.5794976 4.9014129,3.5452662 6.0699155,3.5526245 6.0979222,4.5927822 7.3656605,4.9005081 8.157078,4.1633576 8.9689083,4.8544357 8.3896242,5.7544727 9.1052277,6.7245222 10.111471,6.3817221 10.457272,7.3600937 9.4853461,7.8825316 9.4221661,9.0014963 10.490997,9.2911543 10.206923,10.300344 9.2278292,9.9988343 8.6934129,11.069148 9.4075458,12.124365 8.7137038,12.715192 7.7983373,11.763543 6.8472479,12.334065 6.9081199,13.377808 5.8847275,13.512002 5.5597908,12.567201 4.4423754,12.532756 3.9268203,13.345406 2.9857341,12.967239 3.3466166,11.95835 2.5364812,11.273571 1.4856127,11.859465 0.96495512,11.192928 1.9705881,10.394104 1.5613598,9.5609793 0.53799377,9.5485043 0.50712912,8.6163983 1.5030862,8.2960623 1.6442636,7.4373162 0.58371926,6.8417519 0.96609806,5.9762686 2.0247405,6.3360518 z"
       id="path3763"
       inkscape:connector-curvature="0"
       sodipodi:nodetypes="ccccccccccccccccccccccccccccccccccccccccccccc" />
  </g>
</svg>
