<?xml version="1.0" encoding="UTF-8" standalone="no"?>
<!-- Created with Inkscape (http://www.inkscape.org/) -->

<svg
   xmlns:dc="http://purl.org/dc/elements/1.1/"
   xmlns:cc="http://creativecommons.org/ns#"
   xmlns:rdf="http://www.w3.org/1999/02/22-rdf-syntax-ns#"
   xmlns:svg="http://www.w3.org/2000/svg"
   xmlns="http://www.w3.org/2000/svg"
   xmlns:sodipodi="http://sodipodi.sourceforge.net/DTD/sodipodi-0.dtd"
   xmlns:inkscape="http://www.inkscape.org/namespaces/inkscape"
   width="16px"
   height="16px"
   id="svg9616"
   version="1.1"
   inkscape:version="0.47 r22583"
   sodipodi:docname="questions.svg">
  <defs
     id="defs9618">
    <inkscape:perspective
       sodipodi:type="inkscape:persp3d"
       inkscape:vp_x="0 : 8 : 1"
       inkscape:vp_y="0 : 1000 : 0"
       inkscape:vp_z="16 : 8 : 1"
       inkscape:persp3d-origin="8 : 5.3333333 : 1"
       id="perspective16" />
  </defs>
  <sodipodi:namedview
     id="base"
     pagecolor="#ffffff"
     bordercolor="#666666"
     borderopacity="1.0"
     inkscape:pageopacity="0.0"
     inkscape:pageshadow="2"
     inkscape:zoom="42.5625"
     inkscape:cx="3.2305434"
     inkscape:cy="5.6846287"
     inkscape:current-layer="layer1"
     showgrid="true"
     inkscape:grid-bbox="true"
     inkscape:document-units="px"
     inkscape:snap-global="false"
     inkscape:window-width="2048"
     inkscape:window-height="1076"
     inkscape:window-x="0"
     inkscape:window-y="25"
     inkscape:window-maximized="1">
    <inkscape:grid
       type="xygrid"
       id="grid9624" />
  </sodipodi:namedview>
  <metadata
     id="metadata9621">
    <rdf:RDF>
      <cc:Work
         rdf:about="">
        <dc:format>image/svg+xml</dc:format>
        <dc:type
           rdf:resource="http://purl.org/dc/dcmitype/StillImage" />
        <dc:title></dc:title>
      </cc:Work>
    </rdf:RDF>
  </metadata>
  <g
     id="layer1"
     inkscape:label="Layer 1"
     inkscape:groupmode="layer">
    <rect
       style="fill:#333333;fill-opacity:1;stroke:#000000;stroke-width:0;stroke-linecap:round;stroke-linejoin:round;stroke-miterlimit:4;stroke-opacity:0.99159666000000002;stroke-dasharray:none;stroke-dashoffset:0"
       id="rect4829"
       width="3.066493"
       height="2.9830511"
       x="-0.0091132652"
       y="0.013738192" />
    <rect
       y="0.019006807"
       x="12.98961"
       height="3.0300407"
       width="3.066493"
       id="rect4831"
       style="fill:#333333;fill-opacity:1;stroke:#000000;stroke-width:0;stroke-linecap:round;stroke-linejoin:round;stroke-miterlimit:4;stroke-opacity:0.99159666000000002;stroke-dasharray:none;stroke-dashoffset:0" />
    <rect
       style="fill:#333333;fill-opacity:1;stroke:#000000;stroke-width:0;stroke-linecap:round;stroke-linejoin:round;stroke-miterlimit:4;stroke-opacity:0.99159666000000002;stroke-dasharray:none;stroke-dashoffset:0"
       id="rect4833"
       width="3.066493"
       height="2.9830511"
       x="0.014381595"
       y="6.0007" />
    <rect
       y="6.0241952"
       x="12.966114"
       height="2.9830511"
       width="3.066493"
       id="rect4835"
       style="fill:#333333;fill-opacity:1;stroke:#000000;stroke-width:0;stroke-linecap:round;stroke-linejoin:round;stroke-miterlimit:4;stroke-opacity:0.99159666000000002;stroke-dasharray:none;stroke-dashoffset:0" />
    <rect
       style="fill:#333333;fill-opacity:1;stroke:#000000;stroke-width:0;stroke-linecap:round;stroke-linejoin:round;stroke-miterlimit:4;stroke-opacity:0.99159666000000002;stroke-dasharray:none;stroke-dashoffset:0"
       id="rect4837"
       width="3.066493"
       height="2.9830511"
       x="12.98961"
       y="12.034654" />
    <rect
       y="12.034654"
       x="0.035242267"
       height="2.9830511"
       width="2.9960084"
       id="rect4839"
       style="fill:#333333;fill-opacity:1;stroke:#000000;stroke-width:0;stroke-linecap:round;stroke-linejoin:round;stroke-miterlimit:4;stroke-opacity:0.99159666000000002;stroke-dasharray:none;stroke-dashoffset:0" />
    <g
       transform="matrix(1.0635108,0,0,0.94400906,-0.00558314,0.03986735)"
       style="font-size:19.42538452000000149px;font-style:normal;font-weight:normal;line-height:125%;letter-spacing:0px;word-spacing:0px;fill:#333333;fill-opacity:1;stroke:none;font-family:Sans"
       id="text4841">
      <path
         d="m 10.350157,5.1722535 c -8e-6,0.379682 -0.03905,0.7175903 -0.117117,1.0137261 C 10.154952,6.4821327 10.045968,6.7517001 9.9060849,6.9946825 9.7661858,7.2376807 9.6018953,7.4616874 9.413213,7.6667034 9.2245153,7.8717336 9.0195588,8.0767566 8.7983431,8.2817732 8.6161525,8.4564289 8.443729,8.6310782 8.2810716,8.8057216 8.1184013,8.9803768 7.9768837,9.1664163 7.8565187,9.3638405 7.7361413,9.5612755 7.6401697,9.7776887 7.5686034,10.013081 c -0.071578,0.235401 0.0031,0.572187 0.0031,0.860733 l -0.044184,0.76004 -0.913338,0.07481 -0.044184,-1.008806 C 6.5699941,10.244257 6.7243723,10.07763 6.8122158,9.7511066 6.9000493,9.4245934 7.0220471,9.1303473 7.1782098,8.8683674 7.3343617,8.6063995 7.521425,8.3653074 7.7394005,8.1450909 7.9573641,7.9248877 8.19648,7.6932874 8.4567487,7.4502899 8.6128994,7.3060217 8.7576701,7.1541527 8.8910616,6.9946825 9.0244387,6.8352281 9.1415567,6.6624771 9.2424158,6.4764292 9.3432598,6.2903981 9.4229651,6.0891719 9.4815319,5.8727496 9.5400831,5.6563454 9.5693626,5.4228468 9.5693704,5.1722535 9.5693626,4.8913056 9.5124302,4.6217381 9.3985732,4.3635507 9.2847009,4.1053838 9.1383035,3.8775805 8.9593804,3.6801396 8.780443,3.4827212 8.5754866,3.3232588 8.3445106,3.2017521 8.1135214,3.0802683 7.8809121,3.019521 7.6466821,3.019509 7.3213486,3.019521 7.0220471,3.0878618 6.7487769,3.2245324 6.3429459,3.4859127 6.3301786,3.412331 6.1726632,3.8510123 5.9709559,4.0902169 5.9922856,4.3961119 5.8719182,4.7188232 5.7515432,5.0415548 5.6485332,5.944571 5.6290172,6.3242342 L 4.7105162,6.2478232 C 4.7365396,5.7390714 4.7068904,5.3689069 4.8899382,4.5087579 5.0315057,3.8435261 5.1396348,3.8849217 5.3253552,3.3536953 5.5313311,2.8490286 6.1081408,2.4392273 6.4757657,2.2569723 6.8433813,2.074742 7.2042306,2.1083072 7.6466821,2.1082947 c 0.3773742,1.25e-5 0.7303546,0.075947 1.0589425,0.2278035 0.328574,0.1518814 0.6148624,0.3644979 0.8588659,0.6378501 0.2439878,0.273376 0.4359305,0.5979959 0.5758305,0.9738607 0.139882,0.3758864 0.209828,0.7840343 0.209836,1.2244445 z m -2.6331125,9.6111555 -1.3144776,-0.02494 0,-1.463466 1.3365694,0 z"
         style="font-variant:normal;font-stretch:normal;fill:#333333;fill-opacity:1;font-family:Microsoft Yi Baiti;-inkscape-font-specification:Microsoft Yi Baiti"
         id="path4846"
         inkscape:connector-curvature="0"
         sodipodi:nodetypes="cccscscccccccsscscccccccccsccscccccccccccc" />
    </g>
  </g>
</svg>
